<?xml version="1.0" encoding="utf-8"?>
<!-- Generator: Adobe Illustrator 21.0.0, SVG Export Plug-In . SVG Version: 6.00 Build 0)  -->
<svg version="1.2" baseProfile="tiny" id="Livello_1"
	 xmlns="http://www.w3.org/2000/svg" xmlns:xlink="http://www.w3.org/1999/xlink" x="0px" y="0px" viewBox="0 0 392 277"
	 xml:space="preserve">
<g>
	<path fill="#FFFFFF" d="M34.2,118.5H20.3L6.6,71h13.3l7.8,37.8L36.3,71h11.2l8.7,37.7L64.1,71h12.8l-13.8,47.5H49.7l-5.6-23
		l-2.2-11.6h-0.1l-2.1,11.6L34.2,118.5z"/>
	<path fill="#FFFFFF" d="M129.4,71v47.5H117V99.4H98.9v19.2H86.5V71h12.4v18.8H117V71H129.4z"/>
	<path fill="#FFFFFF" d="M170.8,107.8h-16.4l-3.3,10.7h-12.5L155.3,71h14.8l16.6,47.5H174L170.8,107.8z M168.2,99.4L164.7,88
		l-2.1-7.5h-0.1l-1.9,7.4L157,99.4H168.2z"/>
	<path fill="#FFFFFF" d="M229.4,80.6H214v37.9h-12.4V80.6H186V71h43.4V80.6z"/>
	<path fill="#FFFFFF" d="M275.4,118.5h-12.4V71h12.4V118.5z"/>
	<path fill="#FFFFFF" d="M301.9,80.6v10.1h19.6v9.6h-19.6v18.3h-12.4V71h36.9v9.6H301.9z"/>
	<path fill="#FFFFFF" d="M43.2,174.7H16c0.7,7.3,5.1,11.5,11.7,11.5c5.3,0,8.9-1.9,10.2-5.3l4.8,2.5c-2.7,4.9-7.2,7.8-15,7.8
		c-10.9,0-17.4-7.1-17.4-18.7s6.1-18.7,17-18.7c10.4,0,16.1,7.6,16.1,16.8C43.5,172.3,43.3,173.7,43.2,174.7z M16.1,169.6h21.8
		c-0.8-6.6-4.5-10.7-10.6-10.7C20.9,158.9,17,162.8,16.1,169.6z"/>
	<path fill="#FFFFFF" d="M78.9,190.5l-9.9-13.9l-10.2,13.9H52l13.8-18.1l-13-17.9h7.2l9.5,13.3l9.4-13.3h6.8l-13,17.6l13.2,18.4
		H78.9z"/>
	<path fill="#FFFFFF" d="M130.1,167.5v23h-5.8v-21c0-8-3.9-10.7-8.9-10.7c-5.3,0-11.2,3.4-11.2,12.6v19.1h-5.8V138h5.8v22
		c2.5-4.3,6.8-6.1,11.7-6.1C123.8,153.8,130.1,158.2,130.1,167.5z"/>
	<path fill="#FFFFFF" d="M145.3,143.3c0-2.6,1.7-4.3,4.3-4.3s4.3,1.7,4.3,4.3c0,2.6-1.7,4.3-4.3,4.3S145.3,145.9,145.3,143.3z
		 M152.5,190.5h-5.8v-36h5.8V190.5z"/>
	<path fill="#FFFFFF" d="M203.7,172.5c0,11.7-6.4,18.7-16.4,18.7c-5.7,0-10.2-2.9-12.3-7l-0.4,6.3h-5V138h5.8v22.2
		c2.2-3.7,6.6-6.3,12-6.3C197.2,153.8,203.7,160.8,203.7,172.5z M197.9,172.5c0-8.4-4.2-13.7-11.3-13.7c-6.8,0-11.3,5.1-11.3,13.2
		v0.9c0,8.1,4.5,13.2,11.3,13.2C193.6,186.2,197.9,180.9,197.9,172.5z"/>
	<path fill="#FFFFFF" d="M217,143.3c0-2.6,1.7-4.3,4.3-4.3s4.3,1.7,4.3,4.3c0,2.6-1.7,4.3-4.3,4.3S217,145.9,217,143.3z
		 M224.2,190.5h-5.8v-36h5.8V190.5z"/>
	<path fill="#FFFFFF" d="M263.3,188c-2.2,2-5.3,3.2-9.3,3.2c-5.3,0-9.9-2.7-10-9.6v-22.1h-7.2v-5h7.2v-8.6l5.8-1.6v10.2h13.3v5
		h-13.3v21.1c0,3.5,2.2,5.3,5.4,5.3c2.6,0,4.5-1,6.1-2.7L263.3,188z"/>
	<path fill="#FFFFFF" d="M273.6,143.3c0-2.6,1.7-4.3,4.3-4.3s4.3,1.7,4.3,4.3c0,2.6-1.7,4.3-4.3,4.3S273.6,145.9,273.6,143.3z
		 M280.8,190.5H275v-36h5.8V190.5z"/>
	<path fill="#FFFFFF" d="M330.4,172.5c0,11.7-6.6,18.7-17.4,18.7c-10.9,0-17.4-7.1-17.4-18.7s6.6-18.7,17.4-18.7
		C323.8,153.8,330.4,160.9,330.4,172.5z M301.3,172.5c0,8.6,4.4,13.8,11.7,13.8c7.3,0,11.7-5.2,11.7-13.8s-4.4-13.8-11.7-13.8
		C305.7,158.8,301.3,164,301.3,172.5z"/>
	<path fill="#FFFFFF" d="M376.7,167.5v23h-5.8v-21c0-8-3.9-10.7-8.9-10.7c-5.3,0-11.2,3.3-11.2,12.5v19.2h-5.8v-36h5l0.4,5.6
		c2.5-4.5,7.1-6.3,12.1-6.3C370.3,153.8,376.7,158.2,376.7,167.5z"/>
	<path fill="#FFFFFF" d="M42.4,210v52.6h-1.9l-0.1-9.7c-1.9,6.6-7.1,10.4-14.3,10.4c-10.3,0-16.5-7-16.5-18.7
		c0-11.7,6.2-18.7,16.5-18.7c7.1,0,12.2,3.8,14.2,10.3V210H42.4z M40.4,244.8v-0.6c0-10.3-5.5-16.7-13.9-16.7
		c-9.3,0-14.8,6.3-14.8,17c0,10.7,5.5,16.9,14.8,16.9C34.8,261.5,40.4,255.2,40.4,244.8z"/>
	<path fill="#FFFFFF" d="M87.3,226.5v36h-1.9l-0.1-8.6c-1.9,5.6-7.4,9.3-14.6,9.3c-7.8,0-12.7-4.5-12.7-12.8v-23.9h2V250
		c0,7.6,4,11.4,11,11.4c9.6,0,14.3-7.6,14.3-13.5v-21.5H87.3z"/>
	<path fill="#FFFFFF" d="M132.5,245.6h-29.6c0.4,9.9,5.7,15.8,14.7,15.8c5.8,0,10.7-2.8,13-7.5l1.7,0.9c-2.6,5.3-7.8,8.4-14.6,8.4
		c-10.5,0-16.7-7-16.7-18.7c0-11.7,6-18.7,16.3-18.7c9.7,0,15.4,7.2,15.4,18.6C132.6,244.8,132.5,245.3,132.5,245.6z M102.9,243.7
		h27.8c-0.3-10.1-5-16.2-13.5-16.2C108.4,227.5,103.2,233.7,102.9,243.7z"/>
	<path fill="#FFFFFF" d="M203.5,238.9v23.5h-2v-23.3c0-7.5-4.7-11.6-11.7-11.6c-7.9,0-14,6.1-14,13.6v21.5h-2v-23.3
		c0-7.5-4.7-11.7-11.7-11.7c-7.8,0-14,6-14,13.8v21.2h-2v-36h1.9l0.1,8.6c2-5.6,7.6-9.3,14.3-9.3c6.8,0,11.8,3.4,13.1,9.7
		c1.7-5.8,7.6-9.9,14.6-9.9C198,225.7,203.5,230.4,203.5,238.9z"/>
	<path fill="#FFFFFF" d="M218,217.4c0-1.2,0.9-2.1,2.2-2.1c1.2,0,2.1,0.9,2.1,2.1c0,1.3-0.9,2.1-2.1,2.1
		C218.8,219.5,218,218.7,218,217.4z M221.1,262.5h-2v-36h2V262.5z"/>
	<path fill="#FFFFFF" d="M238.9,254.5c0,5,1.5,6.9,5,6.9c2.1,0,3-0.3,4.4-0.9l-0.2,1.9c-1,0.5-2.5,0.9-4.4,0.9
		c-4.5,0-6.8-2.7-6.8-8.6V210h2V254.5z"/>
	<path fill="#FFFFFF" d="M290.1,261l-0.1,1.7c-0.7,0.4-1.6,0.6-2.9,0.6c-2.6,0-5.5-1.2-5.5-6.9c-2.2,4.6-8.5,6.9-14.1,6.9
		c-7.1,0-11.4-3.2-11.4-8.7c0-5.6,4-8.9,13.4-10.6l12.2-2.2v-4c0-6.3-3.8-10.2-10.9-10.2c-6.3,0-10.3,2.4-12.4,8.2l-1.6-1.2
		c2.2-5.8,6.8-8.8,14-8.8c8.1,0,12.9,4,12.9,11.7v19.3c0,3.2,1.4,4.7,3.7,4.7C288.3,261.5,289.4,261.4,290.1,261z M281.6,251.5v-8
		l-11.2,2.1c-8.9,1.6-12.2,4.5-12.2,9c0,4.4,3.6,6.9,9.7,6.9C273.4,261.5,281.6,258.4,281.6,251.5z"/>
	<path fill="#FFFFFF" d="M309,215v47.5h-2v-36.9v-7.4c-3,4.2-7.8,7.3-12.5,8.7l-0.6-1.7c4.8-1.7,10.7-5.4,13.2-10.2H309z"/>
	<path fill="#FFFFFF" d="M354.8,215v1.8c-11.7,12.5-17.6,27.2-18.9,45.7h-2.1c1.2-17.5,6.8-32.9,18.8-45.7h-31.5V215H354.8z"/>
</g>
<path fill="#FFFFFF" d="M73.5,0h-25L36,21.7l12.5,21.7h25L86,21.7L73.5,0z M61,31c-5,0-9-4-9-9c0-5,4-9,9-9s9,4,9,9
	C70,27,66,31,61,31z"/>
<path fill="#FFFFFF" stroke="#000000" stroke-width="10" stroke-miterlimit="10" d="M49.5,43.3"/>
<path fill="#FFFFFF" stroke="#000000" stroke-width="10" stroke-miterlimit="10" d="M49.5,0"/>
<polygon fill="#FFFFFF" points="24.3,0 12.7,0 0.2,21.7 12.6,43 24.1,43 11.8,21.7 "/>
<polygon fill="#FFFFFF" points="121.3,21.7 108.8,0 97.2,0 109.7,21.7 97.4,43 108.9,43 "/>
</svg>
